<svg xmlns="http://www.w3.org/2000/svg" xmlns:v="https://svgstorm.com"
viewBox = "0 0 1024 1024"
width="1024"
height="1024">
<g fill="None" fill-opacity="0.0" stroke="#FFFFFF" stroke-opacity="1.00" stroke-width="0.3"><path d="
M 0.00 1024.00 
L 1024.00 1024.00
L 1024.00 0.00
L 0.00 0.00
L 0.00 1024.00
M 509.00 199.00 
C 503.10 193.21 503.36 181.74 513.01 182.01 C 522.66 182.28 529.17 184.62 538.00 187.00
C 532.47 170.67 553.02 173.95 561.70 181.31 C 570.37 188.66 580.97 192.92 592.02 195.98 C 603.08 199.03 613.78 201.23 624.08 207.92 C 634.37 214.62 640.43 202.51 646.92 193.92 C 653.41 185.33 658.29 177.27 666.75 169.75 C 675.22 162.23 686.48 157.11 698.07 156.07 C 709.67 155.04 723.72 159.21 733.23 165.77 C 742.74 172.34 747.93 179.53 753.31 189.70 C 758.68 199.86 761.60 213.97 762.00 226.00 C 762.40 238.03 759.28 251.93 754.23 262.23 C 749.18 272.53 743.83 280.58 734.25 287.25 C 724.66 293.92 713.65 298.58 702.00 300.00
C 707.49 311.07 710.59 325.81 714.98 337.02 C 719.36 348.24 722.89 362.89 731.77 371.23 C 740.65 379.57 753.53 382.05 761.70 391.30 C 769.86 400.56 779.31 408.65 784.75 419.25 C 790.20 429.85 800.89 443.36 795.00 454.00
C 799.53 463.99 799.41 477.81 798.67 488.67 C 797.93 499.53 793.53 509.97 790.68 519.68 C 787.82 529.39 779.69 536.58 776.23 545.23 C 772.77 553.88 758.34 556.87 758.03 566.03 C 757.71 575.18 766.49 585.07 767.98 595.02 C 769.46 604.98 775.18 615.82 776.33 626.67 C 777.48 637.52 781.36 648.42 781.99 660.01 C 782.62 671.60 783.88 684.49 783.22 696.22 C 782.56 707.96 782.94 721.71 780.00 733.00
C 787.47 733.98 799.40 741.83 797.00 751.00 C 794.59 760.17 801.69 768.91 798.22 778.22 C 794.75 787.54 791.96 794.17 784.75 800.75 C 777.55 807.34 770.64 810.57 761.93 813.93 C 753.22 817.28 740.91 815.05 734.25 822.25 C 727.58 829.45 721.09 832.82 713.00 837.00
C 725.06 850.19 713.31 871.69 695.00 867.00
C 690.65 877.44 677.11 874.83 668.78 873.22 C 660.45 871.61 648.93 879.43 639.99 874.01 C 631.05 868.58 624.49 869.02 617.25 860.75 C 610.01 852.48 599.65 856.63 589.00 857.00 C 578.35 857.37 565.09 859.11 554.00 858.00 C 542.91 856.89 531.04 857.22 520.00 856.00 C 508.96 854.78 497.94 854.46 487.00 853.00 C 476.06 851.54 464.90 851.65 454.00 850.00 C 443.10 848.35 434.68 849.07 424.33 852.33 C 413.97 855.58 405.18 855.55 394.78 858.78 C 384.38 862.01 374.91 860.89 364.00 864.00 C 353.08 867.10 345.35 859.40 334.00 862.00 C 322.65 864.59 316.67 857.11 309.77 850.23 C 302.87 843.35 307.37 832.24 314.25 826.25 C 321.13 820.26 328.25 815.32 337.00 813.00
C 328.64 804.55 317.67 797.31 314.08 784.92 C 310.48 772.53 297.63 766.97 287.75 759.25 C 277.87 751.53 269.64 744.03 262.25 733.75 C 254.85 723.48 248.24 711.22 245.00 699.00
C 231.76 700.01 224.47 684.19 224.00 674.00 C 223.54 663.81 223.23 644.54 233.75 638.75 C 244.28 632.96 252.34 626.05 263.07 621.07 C 273.80 616.10 282.02 609.79 290.75 601.75 C 299.48 593.71 306.42 586.36 313.00 577.00
C 253.77 550.67 221.88 467.27 264.00 414.00
C 264.33 397.36 281.52 387.65 295.25 378.25 C 308.97 368.84 330.65 361.76 348.00 362.00
C 362.87 334.86 368.39 302.62 388.00 278.00
C 378.74 272.43 371.08 267.02 364.25 257.75 C 357.41 248.49 353.64 237.66 352.00 226.00 C 350.36 214.34 351.13 198.33 355.78 187.78 C 360.42 177.22 364.86 169.44 373.75 161.75 C 382.65 154.07 393.51 149.61 405.07 148.07 C 416.64 146.54 430.01 151.35 438.75 158.25 C 447.49 165.15 450.89 177.15 454.78 186.22 C 458.66 195.30 461.31 212.08 473.08 208.08 C 484.84 204.07 496.38 199.88 509.00 199.00 Z"/>
</g>
<g fill="None" fill-opacity="0.0" stroke="#000000" stroke-opacity="1.00" stroke-width="0.3"><path d="
M 509.00 199.00 
C 496.38 199.88 484.84 204.07 473.08 208.08 C 461.31 212.08 458.66 195.30 454.78 186.22 C 450.89 177.15 447.49 165.15 438.75 158.25 C 430.01 151.35 416.64 146.54 405.07 148.07 C 393.51 149.61 382.65 154.07 373.75 161.75 C 364.86 169.44 360.42 177.22 355.78 187.78 C 351.13 198.33 350.36 214.34 352.00 226.00 C 353.64 237.66 357.41 248.49 364.25 257.75 C 371.08 267.02 378.74 272.43 388.00 278.00
C 368.39 302.62 362.87 334.86 348.00 362.00
C 330.65 361.76 308.97 368.84 295.25 378.25 C 281.52 387.65 264.33 397.36 264.00 414.00
C 221.88 467.27 253.77 550.67 313.00 577.00
C 306.42 586.36 299.48 593.71 290.75 601.75 C 282.02 609.79 273.80 616.10 263.07 621.07 C 252.34 626.05 244.28 632.96 233.75 638.75 C 223.23 644.54 223.54 663.81 224.00 674.00 C 224.47 684.19 231.76 700.01 245.00 699.00
C 248.24 711.22 254.85 723.48 262.25 733.75 C 269.64 744.03 277.87 751.53 287.75 759.25 C 297.63 766.97 310.48 772.53 314.08 784.92 C 317.67 797.31 328.64 804.55 337.00 813.00
C 328.25 815.32 321.13 820.26 314.25 826.25 C 307.37 832.24 302.87 843.35 309.77 850.23 C 316.67 857.11 322.65 864.59 334.00 862.00 C 345.35 859.40 353.08 867.10 364.00 864.00 C 374.91 860.89 384.38 862.01 394.78 858.78 C 405.18 855.55 413.97 855.58 424.33 852.33 C 434.68 849.07 443.10 848.35 454.00 850.00 C 464.90 851.65 476.06 851.54 487.00 853.00 C 497.94 854.46 508.96 854.78 520.00 856.00 C 531.04 857.22 542.91 856.89 554.00 858.00 C 565.09 859.11 578.35 857.37 589.00 857.00 C 599.65 856.63 610.01 852.48 617.25 860.75 C 624.49 869.02 631.05 868.58 639.99 874.01 C 648.93 879.43 660.45 871.61 668.78 873.22 C 677.11 874.83 690.65 877.44 695.00 867.00
C 713.31 871.69 725.06 850.19 713.00 837.00
C 721.09 832.82 727.58 829.45 734.25 822.25 C 740.91 815.05 753.22 817.28 761.93 813.93 C 770.64 810.57 777.55 807.34 784.75 800.75 C 791.96 794.17 794.75 787.54 798.22 778.22 C 801.69 768.91 794.59 760.17 797.00 751.00 C 799.40 741.83 787.47 733.98 780.00 733.00
C 782.94 721.71 782.56 707.96 783.22 696.22 C 783.88 684.49 782.62 671.60 781.99 660.01 C 781.36 648.42 777.48 637.52 776.33 626.67 C 775.18 615.82 769.46 604.98 767.98 595.02 C 766.49 585.07 757.71 575.18 758.03 566.03 C 758.34 556.87 772.77 553.88 776.23 545.23 C 779.69 536.58 787.82 529.39 790.68 519.68 C 793.53 509.97 797.93 499.53 798.67 488.67 C 799.41 477.81 799.53 463.99 795.00 454.00
C 800.89 443.36 790.20 429.85 784.75 419.25 C 779.31 408.65 769.86 400.56 761.70 391.30 C 753.53 382.05 740.65 379.57 731.77 371.23 C 722.89 362.89 719.36 348.24 714.98 337.02 C 710.59 325.81 707.49 311.07 702.00 300.00
C 713.65 298.58 724.66 293.92 734.25 287.25 C 743.83 280.58 749.18 272.53 754.23 262.23 C 759.28 251.93 762.40 238.03 762.00 226.00 C 761.60 213.97 758.68 199.86 753.31 189.70 C 747.93 179.53 742.74 172.34 733.23 165.77 C 723.72 159.21 709.67 155.04 698.07 156.07 C 686.48 157.11 675.22 162.23 666.75 169.75 C 658.29 177.27 653.41 185.33 646.92 193.92 C 640.43 202.51 634.37 214.62 624.08 207.92 C 613.78 201.23 603.08 199.03 592.02 195.98 C 580.97 192.92 570.37 188.66 561.70 181.31 C 553.02 173.95 532.47 170.67 538.00 187.00
C 529.17 184.62 522.66 182.28 513.01 182.01 C 503.36 181.74 503.10 193.21 509.00 199.00
M 458.00 215.00 
C 448.89 219.84 439.41 224.87 432.00 232.00
C 418.26 209.98 426.07 163.93 389.00 164.00
C 402.84 155.78 427.09 156.85 436.75 171.25 C 446.41 185.65 446.28 202.02 458.00 215.00
M 731.00 179.00 
C 710.12 168.98 686.52 187.23 680.23 207.23 C 673.94 227.22 665.03 248.11 645.00 258.00
C 661.46 260.70 674.91 243.81 692.00 244.00
C 688.77 253.35 678.48 258.65 674.00 267.00
C 682.36 266.33 690.70 265.36 699.00 267.00
C 692.78 275.97 680.29 279.86 670.00 283.00
C 679.91 288.28 688.73 283.05 699.08 277.08 C 709.43 271.11 702.34 255.51 689.00 260.00
C 691.24 254.37 701.65 247.78 697.22 240.78 C 692.79 233.78 680.08 240.67 674.00 242.00
C 687.95 223.81 687.61 181.60 720.00 183.00 C 752.39 184.40 755.58 230.07 746.02 255.02 C 736.47 279.98 706.11 293.36 681.00 296.00
C 686.33 299.58 693.04 301.49 694.78 309.22 C 696.52 316.95 699.47 322.46 701.32 329.68 C 703.17 336.89 705.94 343.16 707.98 350.02 C 710.01 356.89 713.99 361.87 717.00 368.00
C 711.52 366.14 705.11 364.71 700.00 366.00
C 733.57 380.97 767.32 404.19 784.00 439.00
C 780.74 438.82 778.47 435.54 775.00 436.00
C 808.66 492.97 762.47 565.97 703.00 582.00
C 729.67 567.31 755.72 544.79 760.93 511.93 C 766.14 479.07 756.75 441.07 731.75 417.25 C 706.75 393.42 673.73 380.97 639.00 382.00
C 667.49 385.48 697.73 392.49 720.75 411.25 C 743.76 430.02 756.48 453.89 759.93 483.07 C 763.37 512.25 750.73 543.28 727.92 561.92 C 705.11 580.55 677.80 589.71 650.00 595.00
C 685.24 599.52 719.23 588.65 749.00 572.00
C 754.10 587.72 758.47 601.62 761.98 618.02 C 765.48 634.43 769.12 652.71 770.00 670.00 C 770.88 687.30 770.14 710.51 767.67 726.67 C 765.20 742.83 760.54 758.89 753.70 772.70 C 746.85 786.50 741.01 797.54 730.25 808.25 C 719.49 818.95 709.64 831.99 694.78 825.22 C 679.92 818.46 658.37 822.71 642.99 825.99 C 627.61 829.27 617.10 845.91 600.00 843.00
C 589.37 821.95 585.87 796.35 592.00 773.00
C 586.29 774.42 584.78 781.51 581.00 785.00
C 583.72 764.49 591.45 745.16 601.00 727.00
C 625.20 728.18 650.98 724.80 668.00 707.00
C 638.00 717.79 600.73 723.89 572.00 707.00
C 579.09 703.36 582.93 695.25 585.00 688.00
C 623.07 696.69 668.39 684.08 691.00 651.00
C 664.42 679.98 624.74 694.03 586.00 686.00
C 590.35 670.94 586.55 654.58 578.00 642.00
C 592.01 634.40 606.58 623.58 612.00 608.00
C 598.30 616.95 586.67 630.05 571.00 636.00
C 570.49 619.82 571.58 602.13 568.00 586.00
C 575.29 587.40 583.80 591.81 591.00 589.00
C 582.71 587.74 575.09 583.94 567.00 582.00
C 566.51 571.83 562.18 569.93 560.68 559.32 C 559.17 548.71 548.28 552.39 541.31 548.69 C 534.33 545.00 534.37 535.08 524.00 538.00 C 513.63 540.92 512.67 523.46 515.00 519.00
C 505.19 514.33 502.75 503.79 502.00 494.00
C 509.98 494.68 518.37 491.66 523.00 485.00
C 500.07 492.52 462.15 481.34 465.00 452.00
C 474.63 452.21 496.95 434.34 487.25 424.75 C 477.54 415.17 454.13 414.62 442.31 421.31 C 430.48 427.99 447.95 451.87 459.00 452.00
C 459.43 461.40 461.55 470.43 452.75 474.75 C 443.95 479.08 436.38 481.77 426.93 479.07 C 417.47 476.37 415.76 467.65 414.00 460.00
C 403.30 475.65 425.54 493.24 441.00 487.00
C 447.29 496.74 447.98 506.73 440.08 515.08 C 432.18 523.44 427.32 530.98 425.01 542.01 C 422.70 553.04 417.16 560.33 411.25 570.25 C 405.34 580.17 392.73 582.29 381.00 582.00
C 387.09 584.24 394.32 584.00 401.00 583.00
C 372.87 614.61 328.37 623.39 288.00 617.00
C 301.35 607.27 314.00 594.73 321.00 580.00
C 331.76 580.72 343.90 587.74 354.00 583.00
C 307.47 567.98 281.63 518.38 284.00 471.00 C 286.37 423.62 321.00 385.70 363.00 367.00
C 361.96 364.81 359.33 363.88 357.00 364.00
C 377.57 329.13 386.46 288.75 417.25 259.25 C 448.04 229.75 486.91 206.39 530.00 208.00
C 526.22 201.14 516.33 197.99 513.00 190.00
C 528.06 190.79 540.51 200.40 555.00 203.00
C 553.01 195.81 545.83 190.67 545.00 183.00
C 559.00 186.72 567.22 199.57 581.08 203.92 C 594.93 208.28 610.73 212.42 624.00 219.00
C 623.67 222.59 618.71 224.06 619.00 228.00
C 641.54 221.58 652.81 202.10 667.25 184.25 C 681.70 166.41 714.52 159.78 731.00 179.00
M 420.00 226.00 
C 408.94 217.40 400.76 228.88 406.00 240.00
C 397.32 233.78 388.13 241.64 391.78 250.22 C 395.43 258.80 399.71 262.30 394.00 270.00
C 374.53 262.41 363.71 240.32 362.00 221.00 C 360.30 201.68 367.85 168.68 393.00 171.00 C 418.15 173.32 411.93 209.85 420.00 226.00
M 424.00 237.00 
C 421.41 240.73 417.23 242.90 414.00 246.00
C 412.48 240.50 410.29 235.11 411.00 229.00
C 415.84 230.47 419.66 234.38 424.00 237.00
M 412.00 247.00 
C 410.84 251.93 404.34 254.02 403.00 259.00
C 398.80 255.63 398.20 249.66 396.00 245.00
C 401.19 243.20 406.57 246.69 412.00 247.00
M 353.00 370.00 
C 318.62 387.65 291.81 414.90 284.00 454.00 C 276.20 493.11 288.05 538.24 319.00 566.00
C 258.21 540.13 234.80 449.42 287.00 404.00
C 284.55 402.84 281.52 405.99 280.00 404.00
C 300.39 385.85 325.18 371.16 353.00 370.00
M 472.00 424.00 
C 477.55 424.90 486.76 428.41 481.25 434.25 C 475.73 440.08 473.27 441.38 466.92 444.92 C 460.58 448.47 453.70 443.14 449.75 439.25 C 445.80 435.36 439.50 426.58 447.08 425.08 C 454.66 423.57 464.15 422.73 472.00 424.00
M 465.00 476.00 
C 469.39 484.45 479.28 489.38 488.00 492.00
C 485.86 502.59 481.59 511.33 469.00 507.00
C 465.65 499.25 467.44 490.06 465.00 482.00
C 462.00 489.36 465.70 498.04 465.00 506.00
C 452.12 509.52 451.70 494.02 448.00 486.00
C 454.38 483.88 458.97 478.38 465.00 476.00
M 495.00 498.00 
C 495.68 502.40 497.28 506.56 498.00 511.00
C 495.11 509.31 493.02 506.23 491.00 504.00
C 492.93 502.26 491.90 498.00 495.00 498.00
M 488.00 510.00 
C 491.09 515.47 484.51 521.95 486.00 529.00 C 487.49 536.05 491.80 539.99 499.00 541.00
C 494.87 553.46 509.17 564.35 521.00 559.00
C 523.60 566.54 530.95 571.79 539.00 571.00
C 540.05 596.79 533.29 620.74 525.00 644.00
C 518.06 644.17 508.77 651.29 513.00 659.00
C 503.65 659.85 500.83 669.57 503.77 676.23 C 506.71 682.89 497.11 688.94 493.75 694.75 C 490.38 700.56 483.97 704.87 479.25 710.25 C 474.53 715.62 468.52 720.31 462.75 724.75 C 456.99 729.19 450.83 733.47 444.30 737.30 C 437.78 741.13 431.21 743.77 423.98 746.98 C 416.74 750.18 409.13 753.18 400.93 754.93 C 392.72 756.67 382.93 758.92 374.00 759.00 C 365.07 759.08 353.51 759.29 345.00 758.00 C 336.49 756.71 327.70 754.70 319.93 752.07 C 312.15 749.45 305.56 746.12 298.77 742.23 C 291.98 738.34 286.79 734.99 280.92 730.08 C 275.05 725.18 270.55 719.97 265.75 714.25 C 260.94 708.54 257.17 701.38 254.00 695.00
C 261.33 690.92 269.93 683.52 266.00 674.00
C 273.81 671.93 274.79 660.23 267.00 657.00
C 271.25 648.89 262.19 640.71 255.00 639.00
C 260.89 626.73 273.83 632.13 285.22 632.78 C 296.61 633.43 311.61 634.65 323.00 632.00
C 326.79 643.75 332.80 654.20 343.25 661.75 C 353.69 669.30 371.31 671.94 383.67 668.67 C 396.03 665.40 407.29 660.44 416.25 651.25 C 425.21 642.06 431.95 631.53 433.78 618.78 C 435.61 606.02 435.39 589.06 427.23 577.77 C 419.07 566.48 429.00 555.40 431.98 542.98 C 434.95 530.55 445.24 522.04 451.00 511.00
C 462.76 511.25 478.13 518.40 488.00 510.00
M 499.00 512.00 
C 505.12 518.62 506.45 526.26 508.32 534.68 C 510.20 543.10 522.65 545.00 529.00 544.00
C 530.95 552.84 539.97 558.61 549.00 557.00
C 543.47 569.04 525.18 563.88 525.00 551.00
C 521.49 551.65 503.82 557.38 505.23 546.77 C 506.64 536.16 502.12 536.08 494.25 531.75 C 486.38 527.42 497.16 515.73 499.00 512.00
M 553.00 564.00 
C 558.02 584.62 561.26 605.77 560.00 628.00
C 551.44 625.84 547.59 634.89 549.00 642.00
C 543.47 641.11 538.56 641.12 533.00 642.00
C 538.83 629.83 539.57 616.15 543.33 603.33 C 547.09 590.51 541.10 572.03 553.00 564.00
M 325.00 632.00 
C 361.43 624.78 399.06 604.13 419.00 571.00
C 442.36 595.78 433.09 637.53 405.30 656.30 C 377.52 675.07 334.51 668.34 325.00 632.00
M 352.00 622.00 
C 326.58 632.93 295.89 632.62 269.00 628.00
C 295.54 622.05 326.66 629.35 352.00 622.00
M 519.00 688.00 
C 526.10 690.27 534.62 690.97 542.00 689.00
C 535.37 685.70 526.53 684.06 519.31 680.70 C 512.08 677.33 504.93 669.03 515.03 666.03 C 525.12 663.02 535.35 667.79 543.00 663.00
C 537.58 659.61 512.36 658.63 523.03 652.03 C 533.69 645.42 546.25 649.00 558.00 649.00
C 556.97 644.46 555.15 640.08 556.00 635.00
C 570.27 638.62 577.49 655.14 579.00 669.00 C 580.51 682.86 573.36 702.43 558.32 705.32 C 543.28 708.21 524.46 702.62 519.00 688.00
M 262.00 652.00 
C 255.22 655.12 246.26 652.39 240.00 656.00
C 246.67 659.35 251.50 658.30 259.01 659.99 C 266.52 661.68 265.70 668.99 258.32 670.32 C 250.94 671.65 245.92 674.27 238.00 673.00
C 242.97 679.34 252.49 677.71 260.00 678.00
C 259.02 687.22 241.53 695.61 236.25 684.75 C 230.96 673.90 232.55 661.93 236.77 650.77 C 240.99 639.61 256.29 642.60 262.00 652.00
M 512.00 684.00 
C 509.16 696.70 521.88 703.94 530.00 710.00
C 477.10 788.78 352.34 807.05 283.00 741.00
C 318.93 769.04 375.93 771.06 417.07 757.07 C 458.21 743.09 485.50 716.68 512.00 684.00
M 599.00 726.00 
C 587.38 747.59 575.97 772.14 579.00 797.00
C 580.64 791.28 584.17 786.23 587.00 781.00
C 584.55 801.63 586.59 825.90 599.00 844.00
C 572.64 846.47 543.94 844.14 518.00 843.00 C 492.06 841.86 466.69 835.90 441.00 836.00 C 415.30 836.10 406.52 814.07 399.00 793.00
C 453.97 790.45 510.77 762.16 540.00 713.00
C 550.51 714.95 559.87 712.44 569.03 717.98 C 578.18 723.51 588.55 724.86 599.00 726.00
M 783.00 764.00 
C 793.05 763.50 791.86 773.56 784.75 776.75 C 777.65 779.95 772.23 783.52 764.00 783.00
C 770.36 769.90 775.36 756.32 778.00 742.00
C 791.14 743.18 787.68 756.48 783.00 764.00
M 789.00 777.00 
C 782.89 792.99 766.21 803.48 750.00 806.00
C 753.38 799.16 759.14 793.32 762.00 786.00
C 771.73 785.68 781.25 782.87 789.00 777.00
M 397.00 793.00 
C 399.72 808.69 409.09 822.25 420.00 834.00
C 384.48 829.01 344.80 815.44 326.00 782.00
C 348.70 789.10 372.09 794.24 397.00 793.00
M 413.00 843.00 
C 403.81 845.55 394.39 848.37 384.33 849.33 C 374.27 850.29 363.91 855.57 353.33 853.67 C 342.74 851.77 359.30 838.34 362.00 835.00
C 352.97 835.92 342.82 841.57 341.00 851.00
C 332.52 853.85 319.45 851.61 326.25 843.25 C 333.04 834.89 335.24 835.18 343.00 829.00
C 332.74 826.43 323.13 836.96 316.00 843.00
C 322.26 826.50 342.60 815.99 358.23 825.77 C 373.86 835.55 395.33 838.69 413.00 843.00
M 696.00 858.00 
C 693.21 851.72 690.74 842.69 683.00 841.00
C 689.79 850.00 690.04 866.71 676.00 865.00 C 661.96 863.29 669.14 846.51 655.00 844.00
C 664.05 853.99 659.35 868.82 646.33 864.67 C 633.31 860.52 631.17 857.51 621.00 850.00
C 629.84 839.88 639.64 837.26 652.22 833.22 C 664.80 829.18 681.60 831.31 694.07 834.93 C 706.55 838.54 714.33 857.78 696.00 858.00 Z"/>
</g>
<g fill="None" fill-opacity="0.0" stroke="#FFFFFF" stroke-opacity="1.00" stroke-width="0.3"><path d="
M 458.00 215.00 
C 446.28 202.02 446.41 185.65 436.75 171.25 C 427.09 156.85 402.84 155.78 389.00 164.00
C 426.07 163.93 418.26 209.98 432.00 232.00
C 439.41 224.87 448.89 219.84 458.00 215.00 Z"/>
</g>
<g fill="None" fill-opacity="0.0" stroke="#FEFFFE" stroke-opacity="1.00" stroke-width="0.3"><path d="
M 731.00 179.00 
C 714.52 159.78 681.70 166.41 667.25 184.25 C 652.81 202.10 641.54 221.58 619.00 228.00
C 618.71 224.06 623.67 222.59 624.00 219.00
C 610.73 212.42 594.93 208.28 581.08 203.92 C 567.22 199.57 559.00 186.72 545.00 183.00
C 545.83 190.67 553.01 195.81 555.00 203.00
C 540.51 200.40 528.06 190.79 513.00 190.00
C 516.33 197.99 526.22 201.14 530.00 208.00
C 486.91 206.39 448.04 229.75 417.25 259.25 C 386.46 288.75 377.57 329.13 357.00 364.00
C 359.33 363.88 361.96 364.81 363.00 367.00
C 321.00 385.70 286.37 423.62 284.00 471.00 C 281.63 518.38 307.47 567.98 354.00 583.00
C 343.90 587.74 331.76 580.72 321.00 580.00
C 314.00 594.73 301.35 607.27 288.00 617.00
C 328.37 623.39 372.87 614.61 401.00 583.00
C 394.32 584.00 387.09 584.24 381.00 582.00
C 392.73 582.29 405.34 580.17 411.25 570.25 C 417.16 560.33 422.70 553.04 425.01 542.01 C 427.32 530.98 432.18 523.44 440.08 515.08 C 447.98 506.73 447.29 496.74 441.00 487.00
C 425.54 493.24 403.30 475.65 414.00 460.00
C 415.76 467.65 417.47 476.37 426.93 479.07 C 436.38 481.77 443.95 479.08 452.75 474.75 C 461.55 470.43 459.43 461.40 459.00 452.00
C 447.95 451.87 430.48 427.99 442.31 421.31 C 454.13 414.62 477.54 415.17 487.25 424.75 C 496.95 434.34 474.63 452.21 465.00 452.00
C 462.15 481.34 500.07 492.52 523.00 485.00
C 518.37 491.66 509.98 494.68 502.00 494.00
C 502.75 503.79 505.19 514.33 515.00 519.00
C 512.67 523.46 513.63 540.92 524.00 538.00 C 534.37 535.08 534.33 545.00 541.31 548.69 C 548.28 552.39 559.17 548.71 560.68 559.32 C 562.18 569.93 566.51 571.83 567.00 582.00
C 575.09 583.94 582.71 587.74 591.00 589.00
C 583.80 591.81 575.29 587.40 568.00 586.00
C 571.58 602.13 570.49 619.82 571.00 636.00
C 586.67 630.05 598.30 616.95 612.00 608.00
C 606.58 623.58 592.01 634.40 578.00 642.00
C 586.55 654.58 590.35 670.94 586.00 686.00
C 624.74 694.03 664.42 679.98 691.00 651.00
C 668.39 684.08 623.07 696.69 585.00 688.00
C 582.93 695.25 579.09 703.36 572.00 707.00
C 600.73 723.89 638.00 717.79 668.00 707.00
C 650.98 724.80 625.20 728.18 601.00 727.00
C 591.45 745.16 583.72 764.49 581.00 785.00
C 584.78 781.51 586.29 774.42 592.00 773.00
C 585.87 796.35 589.37 821.95 600.00 843.00
C 617.10 845.91 627.61 829.27 642.99 825.99 C 658.37 822.71 679.92 818.46 694.78 825.22 C 709.64 831.99 719.49 818.95 730.25 808.25 C 741.01 797.54 746.85 786.50 753.70 772.70 C 760.54 758.89 765.20 742.83 767.67 726.67 C 770.14 710.51 770.88 687.30 770.00 670.00 C 769.12 652.71 765.48 634.43 761.98 618.02 C 758.47 601.62 754.10 587.72 749.00 572.00
C 719.23 588.65 685.24 599.52 650.00 595.00
C 677.80 589.71 705.11 580.55 727.92 561.92 C 750.73 543.28 763.37 512.25 759.93 483.07 C 756.48 453.89 743.76 430.02 720.75 411.25 C 697.73 392.49 667.49 385.48 639.00 382.00
C 673.73 380.97 706.75 393.42 731.75 417.25 C 756.75 441.07 766.14 479.07 760.93 511.93 C 755.72 544.79 729.67 567.31 703.00 582.00
C 762.47 565.97 808.66 492.97 775.00 436.00
C 778.47 435.54 780.74 438.82 784.00 439.00
C 767.32 404.19 733.57 380.97 700.00 366.00
C 705.11 364.71 711.52 366.14 717.00 368.00
C 713.99 361.87 710.01 356.89 707.98 350.02 C 705.94 343.16 703.17 336.89 701.32 329.68 C 699.47 322.46 696.52 316.95 694.78 309.22 C 693.04 301.49 686.33 299.58 681.00 296.00
C 706.11 293.36 736.47 279.98 746.02 255.02 C 755.58 230.07 752.39 184.40 720.00 183.00 C 687.61 181.60 687.95 223.81 674.00 242.00
C 680.08 240.67 692.79 233.78 697.22 240.78 C 701.65 247.78 691.24 254.37 689.00 260.00
C 702.34 255.51 709.43 271.11 699.08 277.08 C 688.73 283.05 679.91 288.28 670.00 283.00
C 680.29 279.86 692.78 275.97 699.00 267.00
C 690.70 265.36 682.36 266.33 674.00 267.00
C 678.48 258.65 688.77 253.35 692.00 244.00
C 674.91 243.81 661.46 260.70 645.00 258.00
C 665.03 248.11 673.94 227.22 680.23 207.23 C 686.52 187.23 710.12 168.98 731.00 179.00
M 598.00 291.00 
C 587.58 279.30 569.69 280.33 559.00 291.00
C 563.35 271.71 593.75 271.43 598.00 291.00
M 438.00 298.00 
C 433.51 285.46 416.51 287.39 409.00 296.00
C 411.04 277.27 441.74 279.68 438.00 298.00
M 414.00 388.00 
C 414.86 391.60 418.87 393.97 419.00 398.00
C 404.74 388.29 389.75 379.27 373.00 375.00
C 375.21 370.98 383.74 373.26 388.00 374.00
C 379.66 355.34 402.69 318.22 423.23 330.77 C 443.76 343.32 430.53 379.51 414.00 388.00
M 602.00 379.00 
C 607.10 379.32 612.70 377.84 617.00 381.00
C 595.44 386.34 573.00 391.91 553.00 403.00
C 554.62 398.99 558.97 394.57 563.00 393.00
C 547.10 378.66 540.09 343.44 565.08 331.08 C 590.06 318.72 614.59 356.01 602.00 379.00
M 518.00 403.00 
C 493.18 384.17 454.67 383.88 431.00 405.00
C 452.07 379.52 495.61 380.32 518.00 403.00 Z"/>
</g>
<g fill="None" fill-opacity="0.0" stroke="#FFFFFF" stroke-opacity="1.00" stroke-width="0.3"><path d="
M 420.00 226.00 
C 411.93 209.85 418.15 173.32 393.00 171.00 C 367.85 168.68 360.30 201.68 362.00 221.00 C 363.71 240.32 374.53 262.41 394.00 270.00
C 399.71 262.30 395.43 258.80 391.78 250.22 C 388.13 241.64 397.32 233.78 406.00 240.00
C 400.76 228.88 408.94 217.40 420.00 226.00 Z"/>
</g>
<g fill="None" fill-opacity="0.0" stroke="#FFFFFF" stroke-opacity="1.00" stroke-width="0.3"><path d="
M 424.00 237.00 
C 419.66 234.38 415.84 230.47 411.00 229.00
C 410.29 235.11 412.48 240.50 414.00 246.00
C 417.23 242.90 421.41 240.73 424.00 237.00 Z"/>
</g>
<g fill="None" fill-opacity="0.0" stroke="#FFFFFF" stroke-opacity="1.00" stroke-width="0.3"><path d="
M 412.00 247.00 
C 406.57 246.69 401.19 243.20 396.00 245.00
C 398.20 249.66 398.80 255.63 403.00 259.00
C 404.34 254.02 410.84 251.93 412.00 247.00 Z"/>
</g>
<g fill="None" fill-opacity="0.0" stroke="#000000" stroke-opacity="1.00" stroke-width="0.3"><path d="
M 598.00 291.00 
C 593.75 271.43 563.35 271.71 559.00 291.00
C 569.69 280.33 587.58 279.30 598.00 291.00 Z"/>
</g>
<g fill="None" fill-opacity="0.0" stroke="#000000" stroke-opacity="1.00" stroke-width="0.3"><path d="
M 438.00 298.00 
C 441.74 279.68 411.04 277.27 409.00 296.00
C 416.51 287.39 433.51 285.46 438.00 298.00 Z"/>
</g>
<g fill="None" fill-opacity="0.0" stroke="#000000" stroke-opacity="1.00" stroke-width="0.3"><path d="
M 414.00 388.00 
C 430.53 379.51 443.76 343.32 423.23 330.77 C 402.69 318.22 379.66 355.34 388.00 374.00
C 383.74 373.26 375.21 370.98 373.00 375.00
C 389.75 379.27 404.74 388.29 419.00 398.00
C 418.87 393.97 414.86 391.60 414.00 388.00
M 414.00 340.00 
C 422.35 341.82 417.26 358.03 409.00 355.00 C 400.74 351.97 405.74 338.19 414.00 340.00 Z"/>
</g>
<g fill="None" fill-opacity="0.0" stroke="#000000" stroke-opacity="1.00" stroke-width="0.3"><path d="
M 602.00 379.00 
C 614.59 356.01 590.06 318.72 565.08 331.08 C 540.09 343.44 547.10 378.66 563.00 393.00
C 558.97 394.57 554.62 398.99 553.00 403.00
C 573.00 391.91 595.44 386.34 617.00 381.00
C 612.70 377.84 607.10 379.32 602.00 379.00
M 576.00 342.00 
C 584.77 345.08 578.97 362.40 569.93 358.07 C 560.88 353.74 565.70 338.38 576.00 342.00 Z"/>
</g>
<g fill="None" fill-opacity="0.0" stroke="#FFFFFF" stroke-opacity="1.00" stroke-width="0.3"><path d="
M 414.00 340.00 
C 405.74 338.19 400.74 351.97 409.00 355.00 C 417.26 358.03 422.35 341.82 414.00 340.00 Z"/>
</g>
<g fill="None" fill-opacity="0.0" stroke="#FFFFFF" stroke-opacity="1.00" stroke-width="0.3"><path d="
M 576.00 342.00 
C 565.70 338.38 560.88 353.74 569.93 358.07 C 578.97 362.40 584.77 345.08 576.00 342.00 Z"/>
</g>
<g fill="None" fill-opacity="0.0" stroke="#FFFFFF" stroke-opacity="1.00" stroke-width="0.3"><path d="
M 353.00 370.00 
C 325.18 371.16 300.39 385.85 280.00 404.00
C 281.52 405.99 284.55 402.84 287.00 404.00
C 234.80 449.42 258.21 540.13 319.00 566.00
C 288.05 538.24 276.20 493.11 284.00 454.00 C 291.81 414.90 318.62 387.65 353.00 370.00 Z"/>
</g>
<g fill="None" fill-opacity="0.0" stroke="#000000" stroke-opacity="1.00" stroke-width="0.3"><path d="
M 518.00 403.00 
C 495.61 380.32 452.07 379.52 431.00 405.00
C 454.67 383.88 493.18 384.17 518.00 403.00 Z"/>
</g>
<g fill="None" fill-opacity="0.0" stroke="#FFFFFF" stroke-opacity="1.00" stroke-width="0.3"><path d="
M 472.00 424.00 
C 464.15 422.73 454.66 423.57 447.08 425.08 C 439.50 426.58 445.80 435.36 449.75 439.25 C 453.70 443.14 460.58 448.47 466.92 444.92 C 473.27 441.38 475.73 440.08 481.25 434.25 C 486.76 428.41 477.55 424.90 472.00 424.00 Z"/>
</g>
<g fill="None" fill-opacity="0.0" stroke="#FFFFFF" stroke-opacity="1.00" stroke-width="0.3"><path d="
M 465.00 476.00 
C 458.97 478.38 454.38 483.88 448.00 486.00
C 451.70 494.02 452.12 509.52 465.00 506.00
C 465.70 498.04 462.00 489.36 465.00 482.00
C 467.44 490.06 465.65 499.25 469.00 507.00
C 481.59 511.33 485.86 502.59 488.00 492.00
C 479.28 489.38 469.39 484.45 465.00 476.00 Z"/>
</g>
<g fill="None" fill-opacity="0.0" stroke="#FFFFFF" stroke-opacity="1.00" stroke-width="0.3"><path d="
M 495.00 498.00 
C 491.90 498.00 492.93 502.26 491.00 504.00
C 493.02 506.23 495.11 509.31 498.00 511.00
C 497.28 506.56 495.68 502.40 495.00 498.00 Z"/>
</g>
<g fill="None" fill-opacity="0.0" stroke="#FFFFFF" stroke-opacity="1.00" stroke-width="0.3"><path d="
M 488.00 510.00 
C 478.13 518.40 462.76 511.25 451.00 511.00
C 445.24 522.04 434.95 530.55 431.98 542.98 C 429.00 555.40 419.07 566.48 427.23 577.77 C 435.39 589.06 435.61 606.02 433.78 618.78 C 431.95 631.53 425.21 642.06 416.25 651.25 C 407.29 660.44 396.03 665.40 383.67 668.67 C 371.31 671.94 353.69 669.30 343.25 661.75 C 332.80 654.20 326.79 643.75 323.00 632.00
C 311.61 634.65 296.61 633.43 285.22 632.78 C 273.83 632.13 260.89 626.73 255.00 639.00
C 262.19 640.71 271.25 648.89 267.00 657.00
C 274.79 660.23 273.81 671.93 266.00 674.00
C 269.93 683.52 261.33 690.92 254.00 695.00
C 257.17 701.38 260.94 708.54 265.75 714.25 C 270.55 719.97 275.05 725.18 280.92 730.08 C 286.79 734.99 291.98 738.34 298.77 742.23 C 305.56 746.12 312.15 749.45 319.93 752.07 C 327.70 754.70 336.49 756.71 345.00 758.00 C 353.51 759.29 365.07 759.08 374.00 759.00 C 382.93 758.92 392.72 756.67 400.93 754.93 C 409.13 753.18 416.74 750.18 423.98 746.98 C 431.21 743.77 437.78 741.13 444.30 737.30 C 450.83 733.47 456.99 729.19 462.75 724.75 C 468.52 720.31 474.53 715.62 479.25 710.25 C 483.97 704.87 490.38 700.56 493.75 694.75 C 497.11 688.94 506.71 682.89 503.77 676.23 C 500.83 669.57 503.65 659.85 513.00 659.00
C 508.77 651.29 518.06 644.17 525.00 644.00
C 533.29 620.74 540.05 596.79 539.00 571.00
C 530.95 571.79 523.60 566.54 521.00 559.00
C 509.17 564.35 494.87 553.46 499.00 541.00
C 491.80 539.99 487.49 536.05 486.00 529.00 C 484.51 521.95 491.09 515.47 488.00 510.00 Z"/>
</g>
<g fill="None" fill-opacity="0.0" stroke="#FFFFFF" stroke-opacity="1.00" stroke-width="0.3"><path d="
M 499.00 512.00 
C 497.16 515.73 486.38 527.42 494.25 531.75 C 502.12 536.08 506.64 536.16 505.23 546.77 C 503.82 557.38 521.49 551.65 525.00 551.00
C 525.18 563.88 543.47 569.04 549.00 557.00
C 539.97 558.61 530.95 552.84 529.00 544.00
C 522.65 545.00 510.20 543.10 508.32 534.68 C 506.45 526.26 505.12 518.62 499.00 512.00 Z"/>
</g>
<g fill="None" fill-opacity="0.0" stroke="#FFFFFF" stroke-opacity="1.00" stroke-width="0.3"><path d="
M 553.00 564.00 
C 541.10 572.03 547.09 590.51 543.33 603.33 C 539.57 616.15 538.83 629.83 533.00 642.00
C 538.56 641.12 543.47 641.11 549.00 642.00
C 547.59 634.89 551.44 625.84 560.00 628.00
C 561.26 605.77 558.02 584.62 553.00 564.00 Z"/>
</g>
<g fill="None" fill-opacity="0.0" stroke="#FFFFFF" stroke-opacity="1.00" stroke-width="0.3"><path d="
M 325.00 632.00 
C 334.51 668.34 377.52 675.07 405.30 656.30 C 433.09 637.53 442.36 595.78 419.00 571.00
C 399.06 604.13 361.43 624.78 325.00 632.00
M 409.00 604.00 
C 415.14 605.00 421.50 608.35 424.30 614.70 C 427.11 621.04 419.40 630.41 411.98 626.02 C 404.55 621.64 404.12 621.60 398.23 613.77 C 392.34 605.94 398.77 602.34 409.00 604.00
M 378.00 617.00 
C 383.54 617.53 384.05 632.87 384.00 638.00 C 383.95 643.13 378.82 653.83 371.00 652.00 C 363.18 650.17 363.93 637.01 366.93 632.93 C 369.92 628.85 372.48 616.47 378.00 617.00 Z"/>
</g>
<g fill="None" fill-opacity="0.0" stroke="#000000" stroke-opacity="1.00" stroke-width="0.3"><path d="
M 409.00 604.00 
C 398.77 602.34 392.34 605.94 398.23 613.77 C 404.12 621.60 404.55 621.64 411.98 626.02 C 419.40 630.41 427.11 621.04 424.30 614.70 C 421.50 608.35 415.14 605.00 409.00 604.00
M 402.00 609.00 
C 406.66 607.55 423.26 614.29 418.22 620.22 C 413.19 626.15 403.66 611.75 402.00 609.00 Z"/>
</g>
<g fill="None" fill-opacity="0.0" stroke="#FFFFFF" stroke-opacity="1.00" stroke-width="0.3"><path d="
M 402.00 609.00 
C 403.66 611.75 413.19 626.15 418.22 620.22 C 423.26 614.29 406.66 607.55 402.00 609.00 Z"/>
</g>
<g fill="None" fill-opacity="0.0" stroke="#000000" stroke-opacity="1.00" stroke-width="0.3"><path d="
M 378.00 617.00 
C 372.48 616.47 369.92 628.85 366.93 632.93 C 363.93 637.01 363.18 650.17 371.00 652.00 C 378.82 653.83 383.95 643.13 384.00 638.00 C 384.05 632.87 383.54 617.53 378.00 617.00
M 372.00 646.00 
C 367.86 639.31 374.28 632.53 376.00 626.00
C 379.31 631.49 379.83 643.79 372.00 646.00 Z"/>
</g>
<g fill="None" fill-opacity="0.0" stroke="#FDFDFD" stroke-opacity="1.00" stroke-width="0.3"><path d="
M 352.00 622.00 
C 326.66 629.35 295.54 622.05 269.00 628.00
C 295.89 632.62 326.58 632.93 352.00 622.00 Z"/>
</g>
<g fill="None" fill-opacity="0.0" stroke="#FFFFFF" stroke-opacity="1.00" stroke-width="0.3"><path d="
M 372.00 646.00 
C 379.83 643.79 379.31 631.49 376.00 626.00
C 374.28 632.53 367.86 639.31 372.00 646.00 Z"/>
</g>
<g fill="None" fill-opacity="0.0" stroke="#FFFFFF" stroke-opacity="1.00" stroke-width="0.3"><path d="
M 519.00 688.00 
C 524.46 702.62 543.28 708.21 558.32 705.32 C 573.36 702.43 580.51 682.86 579.00 669.00 C 577.49 655.14 570.27 638.62 556.00 635.00
C 555.15 640.08 556.97 644.46 558.00 649.00
C 546.25 649.00 533.69 645.42 523.03 652.03 C 512.36 658.63 537.58 659.61 543.00 663.00
C 535.35 667.79 525.12 663.02 515.03 666.03 C 504.93 669.03 512.08 677.33 519.31 680.70 C 526.53 684.06 535.37 685.70 542.00 689.00
C 534.62 690.97 526.10 690.27 519.00 688.00 Z"/>
</g>
<g fill="None" fill-opacity="0.0" stroke="#FFFFFF" stroke-opacity="1.00" stroke-width="0.3"><path d="
M 262.00 652.00 
C 256.29 642.60 240.99 639.61 236.77 650.77 C 232.55 661.93 230.96 673.90 236.25 684.75 C 241.53 695.61 259.02 687.22 260.00 678.00
C 252.49 677.71 242.97 679.34 238.00 673.00
C 245.92 674.27 250.94 671.65 258.32 670.32 C 265.70 668.99 266.52 661.68 259.01 659.99 C 251.50 658.30 246.67 659.35 240.00 656.00
C 246.26 652.39 255.22 655.12 262.00 652.00 Z"/>
</g>
<g fill="None" fill-opacity="0.0" stroke="#FEFEFE" stroke-opacity="1.00" stroke-width="0.3"><path d="
M 512.00 684.00 
C 485.50 716.68 458.21 743.09 417.07 757.07 C 375.93 771.06 318.93 769.04 283.00 741.00
C 352.34 807.05 477.10 788.78 530.00 710.00
C 521.88 703.94 509.16 696.70 512.00 684.00 Z"/>
</g>
<g fill="None" fill-opacity="0.0" stroke="#FFFFFF" stroke-opacity="1.00" stroke-width="0.3"><path d="
M 599.00 726.00 
C 588.55 724.86 578.18 723.51 569.03 717.98 C 559.87 712.44 550.51 714.95 540.00 713.00
C 510.77 762.16 453.97 790.45 399.00 793.00
C 406.52 814.07 415.30 836.10 441.00 836.00 C 466.69 835.90 492.06 841.86 518.00 843.00 C 543.94 844.14 572.64 846.47 599.00 844.00
C 586.59 825.90 584.55 801.63 587.00 781.00
C 584.17 786.23 580.64 791.28 579.00 797.00
C 575.97 772.14 587.38 747.59 599.00 726.00 Z"/>
</g>
<g fill="None" fill-opacity="0.0" stroke="#FFFFFF" stroke-opacity="1.00" stroke-width="0.3"><path d="
M 783.00 764.00 
C 787.68 756.48 791.14 743.18 778.00 742.00
C 775.36 756.32 770.36 769.90 764.00 783.00
C 772.23 783.52 777.65 779.95 784.75 776.75 C 791.86 773.56 793.05 763.50 783.00 764.00 Z"/>
</g>
<g fill="None" fill-opacity="0.0" stroke="#FFFFFF" stroke-opacity="1.00" stroke-width="0.3"><path d="
M 789.00 777.00 
C 781.25 782.87 771.73 785.68 762.00 786.00
C 759.14 793.32 753.38 799.16 750.00 806.00
C 766.21 803.48 782.89 792.99 789.00 777.00 Z"/>
</g>
<g fill="None" fill-opacity="0.0" stroke="#FFFFFF" stroke-opacity="1.00" stroke-width="0.3"><path d="
M 397.00 793.00 
C 372.09 794.24 348.70 789.10 326.00 782.00
C 344.80 815.44 384.48 829.01 420.00 834.00
C 409.09 822.25 399.72 808.69 397.00 793.00 Z"/>
</g>
<g fill="None" fill-opacity="0.0" stroke="#FFFFFF" stroke-opacity="1.00" stroke-width="0.3"><path d="
M 413.00 843.00 
C 395.33 838.69 373.86 835.55 358.23 825.77 C 342.60 815.99 322.26 826.50 316.00 843.00
C 323.13 836.96 332.74 826.43 343.00 829.00
C 335.24 835.18 333.04 834.89 326.25 843.25 C 319.45 851.61 332.52 853.85 341.00 851.00
C 342.82 841.57 352.97 835.92 362.00 835.00
C 359.30 838.34 342.74 851.77 353.33 853.67 C 363.91 855.57 374.27 850.29 384.33 849.33 C 394.39 848.37 403.81 845.55 413.00 843.00 Z"/>
</g>
<g fill="None" fill-opacity="0.0" stroke="#FFFFFF" stroke-opacity="1.00" stroke-width="0.3"><path d="
M 696.00 858.00 
C 714.33 857.78 706.55 838.54 694.07 834.93 C 681.60 831.31 664.80 829.18 652.22 833.22 C 639.64 837.26 629.84 839.88 621.00 850.00
C 631.17 857.51 633.31 860.52 646.33 864.67 C 659.35 868.82 664.05 853.99 655.00 844.00
C 669.14 846.51 661.96 863.29 676.00 865.00 C 690.04 866.71 689.79 850.00 683.00 841.00
C 690.74 842.69 693.21 851.72 696.00 858.00 Z"/>
</g>
<g fill="#FFFFFF" fill-opacity="1.00" stroke="None">
<path d="
M 0.00 1024.00 
L 1024.00 1024.00
L 1024.00 0.00
L 0.00 0.00
L 0.00 1024.00
M 509.00 199.00 
C 503.10 193.21 503.36 181.74 513.01 182.01 C 522.66 182.28 529.17 184.62 538.00 187.00
C 532.47 170.67 553.02 173.95 561.70 181.31 C 570.37 188.66 580.97 192.92 592.02 195.98 C 603.08 199.03 613.78 201.23 624.08 207.92 C 634.37 214.62 640.43 202.51 646.92 193.92 C 653.41 185.33 658.29 177.27 666.75 169.75 C 675.22 162.23 686.48 157.11 698.07 156.07 C 709.67 155.04 723.72 159.21 733.23 165.77 C 742.74 172.34 747.93 179.53 753.31 189.70 C 758.68 199.86 761.60 213.97 762.00 226.00 C 762.40 238.03 759.28 251.93 754.23 262.23 C 749.18 272.53 743.83 280.58 734.25 287.25 C 724.66 293.92 713.65 298.58 702.00 300.00
C 707.49 311.07 710.59 325.81 714.98 337.02 C 719.36 348.24 722.89 362.89 731.77 371.23 C 740.65 379.57 753.53 382.05 761.70 391.30 C 769.86 400.56 779.31 408.65 784.75 419.25 C 790.20 429.85 800.89 443.36 795.00 454.00
C 799.53 463.99 799.41 477.81 798.67 488.67 C 797.93 499.53 793.53 509.97 790.68 519.68 C 787.82 529.39 779.69 536.58 776.23 545.23 C 772.77 553.88 758.34 556.87 758.03 566.03 C 757.71 575.18 766.49 585.07 767.98 595.02 C 769.46 604.98 775.18 615.82 776.33 626.67 C 777.48 637.52 781.36 648.42 781.99 660.01 C 782.62 671.60 783.88 684.49 783.22 696.22 C 782.56 707.96 782.94 721.71 780.00 733.00
C 787.47 733.98 799.40 741.83 797.00 751.00 C 794.59 760.17 801.69 768.91 798.22 778.22 C 794.75 787.54 791.96 794.17 784.75 800.75 C 777.55 807.34 770.64 810.57 761.93 813.93 C 753.22 817.28 740.91 815.05 734.25 822.25 C 727.58 829.45 721.09 832.82 713.00 837.00
C 725.06 850.19 713.31 871.69 695.00 867.00
C 690.65 877.44 677.11 874.83 668.78 873.22 C 660.45 871.61 648.93 879.43 639.99 874.01 C 631.05 868.58 624.49 869.02 617.25 860.75 C 610.01 852.48 599.65 856.63 589.00 857.00 C 578.35 857.37 565.09 859.11 554.00 858.00 C 542.91 856.89 531.04 857.22 520.00 856.00 C 508.96 854.78 497.94 854.46 487.00 853.00 C 476.06 851.54 464.90 851.65 454.00 850.00 C 443.10 848.35 434.68 849.07 424.33 852.33 C 413.97 855.58 405.18 855.55 394.78 858.78 C 384.38 862.01 374.91 860.89 364.00 864.00 C 353.08 867.10 345.35 859.40 334.00 862.00 C 322.65 864.59 316.67 857.11 309.77 850.23 C 302.87 843.35 307.37 832.24 314.25 826.25 C 321.13 820.26 328.25 815.32 337.00 813.00
C 328.64 804.55 317.67 797.31 314.08 784.92 C 310.48 772.53 297.63 766.97 287.75 759.25 C 277.87 751.53 269.64 744.03 262.25 733.75 C 254.85 723.48 248.24 711.22 245.00 699.00
C 231.76 700.01 224.47 684.19 224.00 674.00 C 223.54 663.81 223.23 644.54 233.75 638.75 C 244.28 632.96 252.34 626.05 263.07 621.07 C 273.80 616.10 282.02 609.79 290.75 601.75 C 299.48 593.71 306.42 586.36 313.00 577.00
C 253.77 550.67 221.88 467.27 264.00 414.00
C 264.33 397.36 281.52 387.65 295.25 378.25 C 308.97 368.84 330.65 361.76 348.00 362.00
C 362.87 334.86 368.39 302.62 388.00 278.00
C 378.74 272.43 371.08 267.02 364.25 257.75 C 357.41 248.49 353.64 237.66 352.00 226.00 C 350.36 214.34 351.13 198.33 355.78 187.78 C 360.42 177.22 364.86 169.44 373.75 161.75 C 382.65 154.07 393.51 149.61 405.07 148.07 C 416.64 146.54 430.01 151.35 438.75 158.25 C 447.49 165.15 450.89 177.15 454.78 186.22 C 458.66 195.30 461.31 212.08 473.08 208.08 C 484.84 204.07 496.38 199.88 509.00 199.00 Z"/>
</g>
<g fill="#000000" fill-opacity="1.00" stroke="None">
<path d="
M 509.00 199.00 
C 496.38 199.88 484.84 204.07 473.08 208.08 C 461.31 212.08 458.66 195.30 454.78 186.22 C 450.89 177.15 447.49 165.15 438.75 158.25 C 430.01 151.35 416.64 146.54 405.07 148.07 C 393.51 149.61 382.65 154.07 373.75 161.75 C 364.86 169.44 360.42 177.22 355.78 187.78 C 351.13 198.33 350.36 214.34 352.00 226.00 C 353.64 237.66 357.41 248.49 364.25 257.75 C 371.08 267.02 378.74 272.43 388.00 278.00
C 368.39 302.62 362.87 334.86 348.00 362.00
C 330.65 361.76 308.97 368.84 295.25 378.25 C 281.52 387.65 264.33 397.36 264.00 414.00
C 221.88 467.27 253.77 550.67 313.00 577.00
C 306.42 586.36 299.48 593.71 290.75 601.75 C 282.02 609.79 273.80 616.10 263.07 621.07 C 252.34 626.05 244.28 632.96 233.75 638.75 C 223.23 644.54 223.54 663.81 224.00 674.00 C 224.47 684.19 231.76 700.01 245.00 699.00
C 248.24 711.22 254.85 723.48 262.25 733.75 C 269.64 744.03 277.87 751.53 287.75 759.25 C 297.63 766.97 310.48 772.53 314.08 784.92 C 317.67 797.31 328.64 804.55 337.00 813.00
C 328.25 815.32 321.13 820.26 314.25 826.25 C 307.37 832.24 302.87 843.35 309.77 850.23 C 316.67 857.11 322.65 864.59 334.00 862.00 C 345.35 859.40 353.08 867.10 364.00 864.00 C 374.91 860.89 384.38 862.01 394.78 858.78 C 405.18 855.55 413.97 855.58 424.33 852.33 C 434.68 849.07 443.10 848.35 454.00 850.00 C 464.90 851.65 476.06 851.54 487.00 853.00 C 497.94 854.46 508.96 854.78 520.00 856.00 C 531.04 857.22 542.91 856.89 554.00 858.00 C 565.09 859.11 578.35 857.37 589.00 857.00 C 599.65 856.63 610.01 852.48 617.25 860.75 C 624.49 869.02 631.05 868.58 639.99 874.01 C 648.93 879.43 660.45 871.61 668.78 873.22 C 677.11 874.83 690.65 877.44 695.00 867.00
C 713.31 871.69 725.06 850.19 713.00 837.00
C 721.09 832.82 727.58 829.45 734.25 822.25 C 740.91 815.05 753.22 817.28 761.93 813.93 C 770.64 810.57 777.55 807.34 784.75 800.75 C 791.96 794.17 794.75 787.54 798.22 778.22 C 801.69 768.91 794.59 760.17 797.00 751.00 C 799.40 741.83 787.47 733.98 780.00 733.00
C 782.94 721.71 782.56 707.96 783.22 696.22 C 783.88 684.49 782.62 671.60 781.99 660.01 C 781.36 648.42 777.48 637.52 776.33 626.67 C 775.18 615.82 769.46 604.98 767.98 595.02 C 766.49 585.07 757.71 575.18 758.03 566.03 C 758.34 556.87 772.77 553.88 776.23 545.23 C 779.69 536.58 787.82 529.39 790.68 519.68 C 793.53 509.97 797.93 499.53 798.67 488.67 C 799.41 477.81 799.53 463.99 795.00 454.00
C 800.89 443.36 790.20 429.85 784.75 419.25 C 779.31 408.65 769.86 400.56 761.70 391.30 C 753.53 382.05 740.65 379.57 731.77 371.23 C 722.89 362.89 719.36 348.24 714.98 337.02 C 710.59 325.81 707.49 311.07 702.00 300.00
C 713.65 298.58 724.66 293.92 734.25 287.25 C 743.83 280.58 749.18 272.53 754.23 262.23 C 759.28 251.93 762.40 238.03 762.00 226.00 C 761.60 213.97 758.68 199.86 753.31 189.70 C 747.93 179.53 742.74 172.34 733.23 165.77 C 723.72 159.21 709.67 155.04 698.07 156.07 C 686.48 157.11 675.22 162.23 666.75 169.75 C 658.29 177.27 653.41 185.33 646.92 193.92 C 640.43 202.51 634.37 214.62 624.08 207.92 C 613.78 201.23 603.08 199.03 592.02 195.98 C 580.97 192.92 570.37 188.66 561.70 181.31 C 553.02 173.95 532.47 170.67 538.00 187.00
C 529.17 184.62 522.66 182.28 513.01 182.01 C 503.36 181.74 503.10 193.21 509.00 199.00
M 458.00 215.00 
C 448.89 219.84 439.41 224.87 432.00 232.00
C 418.26 209.98 426.07 163.93 389.00 164.00
C 402.84 155.78 427.09 156.85 436.75 171.25 C 446.41 185.65 446.28 202.02 458.00 215.00
M 731.00 179.00 
C 710.12 168.98 686.52 187.23 680.23 207.23 C 673.94 227.22 665.03 248.11 645.00 258.00
C 661.46 260.70 674.91 243.81 692.00 244.00
C 688.77 253.35 678.48 258.65 674.00 267.00
C 682.36 266.33 690.70 265.36 699.00 267.00
C 692.78 275.97 680.29 279.86 670.00 283.00
C 679.91 288.28 688.73 283.05 699.08 277.08 C 709.43 271.11 702.34 255.51 689.00 260.00
C 691.24 254.37 701.65 247.78 697.22 240.78 C 692.79 233.78 680.08 240.67 674.00 242.00
C 687.95 223.81 687.61 181.60 720.00 183.00 C 752.39 184.40 755.58 230.07 746.02 255.02 C 736.47 279.98 706.11 293.36 681.00 296.00
C 686.33 299.58 693.04 301.49 694.78 309.22 C 696.52 316.95 699.47 322.46 701.32 329.68 C 703.17 336.89 705.94 343.16 707.98 350.02 C 710.01 356.89 713.99 361.87 717.00 368.00
C 711.52 366.14 705.11 364.71 700.00 366.00
C 733.57 380.97 767.32 404.19 784.00 439.00
C 780.74 438.82 778.47 435.54 775.00 436.00
C 808.66 492.97 762.47 565.97 703.00 582.00
C 729.67 567.31 755.72 544.79 760.93 511.93 C 766.14 479.07 756.75 441.07 731.75 417.25 C 706.75 393.42 673.73 380.97 639.00 382.00
C 667.49 385.48 697.73 392.49 720.75 411.25 C 743.76 430.02 756.48 453.89 759.93 483.07 C 763.37 512.25 750.73 543.28 727.92 561.92 C 705.11 580.55 677.80 589.71 650.00 595.00
C 685.24 599.52 719.23 588.65 749.00 572.00
C 754.10 587.72 758.47 601.62 761.98 618.02 C 765.48 634.43 769.12 652.71 770.00 670.00 C 770.88 687.30 770.14 710.51 767.67 726.67 C 765.20 742.83 760.54 758.89 753.70 772.70 C 746.85 786.50 741.01 797.54 730.25 808.25 C 719.49 818.95 709.64 831.99 694.78 825.22 C 679.92 818.46 658.37 822.71 642.99 825.99 C 627.61 829.27 617.10 845.91 600.00 843.00
C 589.37 821.95 585.87 796.35 592.00 773.00
C 586.29 774.42 584.78 781.51 581.00 785.00
C 583.72 764.49 591.45 745.16 601.00 727.00
C 625.20 728.18 650.98 724.80 668.00 707.00
C 638.00 717.79 600.73 723.89 572.00 707.00
C 579.09 703.36 582.93 695.25 585.00 688.00
C 623.07 696.69 668.39 684.08 691.00 651.00
C 664.42 679.98 624.74 694.03 586.00 686.00
C 590.35 670.94 586.55 654.58 578.00 642.00
C 592.01 634.40 606.58 623.58 612.00 608.00
C 598.30 616.95 586.67 630.05 571.00 636.00
C 570.49 619.82 571.58 602.13 568.00 586.00
C 575.29 587.40 583.80 591.81 591.00 589.00
C 582.71 587.74 575.09 583.94 567.00 582.00
C 566.51 571.83 562.18 569.93 560.68 559.32 C 559.17 548.71 548.28 552.39 541.31 548.69 C 534.33 545.00 534.37 535.08 524.00 538.00 C 513.63 540.92 512.67 523.46 515.00 519.00
C 505.19 514.33 502.75 503.79 502.00 494.00
C 509.98 494.68 518.37 491.66 523.00 485.00
C 500.07 492.52 462.15 481.34 465.00 452.00
C 474.63 452.21 496.95 434.34 487.25 424.75 C 477.54 415.17 454.13 414.62 442.31 421.31 C 430.48 427.99 447.95 451.87 459.00 452.00
C 459.43 461.40 461.55 470.43 452.75 474.75 C 443.95 479.08 436.38 481.77 426.93 479.07 C 417.47 476.37 415.76 467.65 414.00 460.00
C 403.30 475.65 425.54 493.24 441.00 487.00
C 447.29 496.74 447.98 506.73 440.08 515.08 C 432.18 523.44 427.32 530.98 425.01 542.01 C 422.70 553.04 417.16 560.33 411.25 570.25 C 405.34 580.17 392.73 582.29 381.00 582.00
C 387.09 584.24 394.32 584.00 401.00 583.00
C 372.87 614.61 328.37 623.39 288.00 617.00
C 301.35 607.27 314.00 594.73 321.00 580.00
C 331.76 580.72 343.90 587.74 354.00 583.00
C 307.47 567.98 281.63 518.38 284.00 471.00 C 286.37 423.62 321.00 385.70 363.00 367.00
C 361.96 364.81 359.33 363.88 357.00 364.00
C 377.57 329.13 386.46 288.75 417.25 259.25 C 448.04 229.75 486.91 206.39 530.00 208.00
C 526.22 201.14 516.33 197.99 513.00 190.00
C 528.06 190.79 540.51 200.40 555.00 203.00
C 553.01 195.81 545.83 190.67 545.00 183.00
C 559.00 186.72 567.22 199.57 581.08 203.92 C 594.93 208.28 610.73 212.42 624.00 219.00
C 623.67 222.59 618.71 224.06 619.00 228.00
C 641.54 221.58 652.81 202.10 667.25 184.25 C 681.70 166.41 714.52 159.78 731.00 179.00
M 420.00 226.00 
C 408.94 217.40 400.76 228.88 406.00 240.00
C 397.32 233.78 388.13 241.64 391.78 250.22 C 395.43 258.80 399.71 262.30 394.00 270.00
C 374.53 262.41 363.71 240.32 362.00 221.00 C 360.30 201.68 367.85 168.68 393.00 171.00 C 418.15 173.32 411.93 209.85 420.00 226.00
M 424.00 237.00 
C 421.41 240.73 417.23 242.90 414.00 246.00
C 412.48 240.50 410.29 235.11 411.00 229.00
C 415.84 230.47 419.66 234.38 424.00 237.00
M 412.00 247.00 
C 410.84 251.93 404.34 254.02 403.00 259.00
C 398.80 255.63 398.20 249.66 396.00 245.00
C 401.19 243.20 406.57 246.69 412.00 247.00
M 353.00 370.00 
C 318.62 387.65 291.81 414.90 284.00 454.00 C 276.20 493.11 288.05 538.24 319.00 566.00
C 258.21 540.13 234.80 449.42 287.00 404.00
C 284.55 402.84 281.52 405.99 280.00 404.00
C 300.39 385.85 325.18 371.16 353.00 370.00
M 472.00 424.00 
C 477.55 424.90 486.76 428.41 481.25 434.25 C 475.73 440.08 473.27 441.38 466.92 444.92 C 460.58 448.47 453.70 443.14 449.75 439.25 C 445.80 435.36 439.50 426.58 447.08 425.08 C 454.66 423.57 464.15 422.73 472.00 424.00
M 465.00 476.00 
C 469.39 484.45 479.28 489.38 488.00 492.00
C 485.86 502.59 481.59 511.33 469.00 507.00
C 465.65 499.25 467.44 490.06 465.00 482.00
C 462.00 489.36 465.70 498.04 465.00 506.00
C 452.12 509.52 451.70 494.02 448.00 486.00
C 454.38 483.88 458.97 478.38 465.00 476.00
M 495.00 498.00 
C 495.68 502.40 497.28 506.56 498.00 511.00
C 495.11 509.31 493.02 506.23 491.00 504.00
C 492.93 502.26 491.90 498.00 495.00 498.00
M 488.00 510.00 
C 491.09 515.47 484.51 521.95 486.00 529.00 C 487.49 536.05 491.80 539.99 499.00 541.00
C 494.87 553.46 509.17 564.35 521.00 559.00
C 523.60 566.54 530.95 571.79 539.00 571.00
C 540.05 596.79 533.29 620.74 525.00 644.00
C 518.06 644.17 508.77 651.29 513.00 659.00
C 503.65 659.85 500.83 669.57 503.77 676.23 C 506.71 682.89 497.11 688.94 493.75 694.75 C 490.38 700.56 483.97 704.87 479.25 710.25 C 474.53 715.62 468.52 720.31 462.75 724.75 C 456.99 729.19 450.83 733.47 444.30 737.30 C 437.78 741.13 431.21 743.77 423.98 746.98 C 416.74 750.18 409.13 753.18 400.93 754.93 C 392.72 756.67 382.93 758.92 374.00 759.00 C 365.07 759.08 353.51 759.29 345.00 758.00 C 336.49 756.71 327.70 754.70 319.93 752.07 C 312.15 749.45 305.56 746.12 298.77 742.23 C 291.98 738.34 286.79 734.99 280.92 730.08 C 275.05 725.18 270.55 719.97 265.75 714.25 C 260.94 708.54 257.17 701.38 254.00 695.00
C 261.33 690.92 269.93 683.52 266.00 674.00
C 273.81 671.93 274.79 660.23 267.00 657.00
C 271.25 648.89 262.19 640.71 255.00 639.00
C 260.89 626.73 273.83 632.13 285.22 632.78 C 296.61 633.43 311.61 634.65 323.00 632.00
C 326.79 643.75 332.80 654.20 343.25 661.75 C 353.69 669.30 371.31 671.94 383.67 668.67 C 396.03 665.40 407.29 660.44 416.25 651.25 C 425.21 642.06 431.95 631.53 433.78 618.78 C 435.61 606.02 435.39 589.06 427.23 577.77 C 419.07 566.48 429.00 555.40 431.98 542.98 C 434.95 530.55 445.24 522.04 451.00 511.00
C 462.76 511.25 478.13 518.40 488.00 510.00
M 499.00 512.00 
C 505.12 518.62 506.45 526.26 508.32 534.68 C 510.20 543.10 522.65 545.00 529.00 544.00
C 530.95 552.84 539.97 558.61 549.00 557.00
C 543.47 569.04 525.18 563.88 525.00 551.00
C 521.49 551.65 503.82 557.38 505.23 546.77 C 506.64 536.16 502.12 536.08 494.25 531.75 C 486.38 527.42 497.16 515.73 499.00 512.00
M 553.00 564.00 
C 558.02 584.62 561.26 605.77 560.00 628.00
C 551.44 625.84 547.59 634.89 549.00 642.00
C 543.47 641.11 538.56 641.12 533.00 642.00
C 538.83 629.83 539.57 616.15 543.33 603.33 C 547.09 590.51 541.10 572.03 553.00 564.00
M 325.00 632.00 
C 361.43 624.78 399.06 604.13 419.00 571.00
C 442.36 595.78 433.09 637.53 405.30 656.30 C 377.52 675.07 334.51 668.34 325.00 632.00
M 352.00 622.00 
C 326.58 632.93 295.89 632.62 269.00 628.00
C 295.54 622.05 326.66 629.35 352.00 622.00
M 519.00 688.00 
C 526.10 690.27 534.62 690.97 542.00 689.00
C 535.37 685.70 526.53 684.06 519.31 680.70 C 512.08 677.33 504.93 669.03 515.03 666.03 C 525.12 663.02 535.35 667.79 543.00 663.00
C 537.58 659.61 512.36 658.63 523.03 652.03 C 533.69 645.42 546.25 649.00 558.00 649.00
C 556.97 644.46 555.15 640.08 556.00 635.00
C 570.27 638.62 577.49 655.14 579.00 669.00 C 580.51 682.86 573.36 702.43 558.32 705.32 C 543.28 708.21 524.46 702.62 519.00 688.00
M 262.00 652.00 
C 255.22 655.12 246.26 652.39 240.00 656.00
C 246.67 659.35 251.50 658.30 259.01 659.99 C 266.52 661.68 265.70 668.99 258.32 670.32 C 250.94 671.65 245.92 674.27 238.00 673.00
C 242.97 679.34 252.49 677.71 260.00 678.00
C 259.02 687.22 241.53 695.61 236.25 684.75 C 230.96 673.90 232.55 661.93 236.77 650.77 C 240.99 639.61 256.29 642.60 262.00 652.00
M 512.00 684.00 
C 509.16 696.70 521.88 703.94 530.00 710.00
C 477.10 788.78 352.34 807.05 283.00 741.00
C 318.93 769.04 375.93 771.06 417.07 757.07 C 458.21 743.09 485.50 716.68 512.00 684.00
M 599.00 726.00 
C 587.38 747.59 575.97 772.14 579.00 797.00
C 580.64 791.28 584.17 786.23 587.00 781.00
C 584.55 801.63 586.59 825.90 599.00 844.00
C 572.64 846.47 543.94 844.14 518.00 843.00 C 492.06 841.86 466.69 835.90 441.00 836.00 C 415.30 836.10 406.52 814.07 399.00 793.00
C 453.97 790.45 510.77 762.16 540.00 713.00
C 550.51 714.95 559.87 712.44 569.03 717.98 C 578.18 723.51 588.55 724.86 599.00 726.00
M 783.00 764.00 
C 793.05 763.50 791.86 773.56 784.75 776.75 C 777.65 779.95 772.23 783.52 764.00 783.00
C 770.36 769.90 775.36 756.32 778.00 742.00
C 791.14 743.18 787.68 756.48 783.00 764.00
M 789.00 777.00 
C 782.89 792.99 766.21 803.48 750.00 806.00
C 753.38 799.16 759.14 793.32 762.00 786.00
C 771.73 785.68 781.25 782.87 789.00 777.00
M 397.00 793.00 
C 399.72 808.69 409.09 822.25 420.00 834.00
C 384.48 829.01 344.80 815.44 326.00 782.00
C 348.70 789.10 372.09 794.24 397.00 793.00
M 413.00 843.00 
C 403.81 845.55 394.39 848.37 384.33 849.33 C 374.27 850.29 363.91 855.57 353.33 853.67 C 342.74 851.77 359.30 838.34 362.00 835.00
C 352.97 835.92 342.82 841.57 341.00 851.00
C 332.52 853.85 319.45 851.61 326.25 843.25 C 333.04 834.89 335.24 835.18 343.00 829.00
C 332.74 826.43 323.13 836.96 316.00 843.00
C 322.26 826.50 342.60 815.99 358.23 825.77 C 373.86 835.55 395.33 838.69 413.00 843.00
M 696.00 858.00 
C 693.21 851.72 690.74 842.69 683.00 841.00
C 689.79 850.00 690.04 866.71 676.00 865.00 C 661.96 863.29 669.14 846.51 655.00 844.00
C 664.05 853.99 659.35 868.82 646.33 864.67 C 633.31 860.52 631.17 857.51 621.00 850.00
C 629.84 839.88 639.64 837.26 652.22 833.22 C 664.80 829.18 681.60 831.31 694.07 834.93 C 706.55 838.54 714.33 857.78 696.00 858.00 Z"/>
</g>
<g fill="#FFFFFF" fill-opacity="1.00" stroke="None">
<path d="
M 458.00 215.00 
C 446.28 202.02 446.41 185.65 436.75 171.25 C 427.09 156.85 402.84 155.78 389.00 164.00
C 426.07 163.93 418.26 209.98 432.00 232.00
C 439.41 224.87 448.89 219.84 458.00 215.00 Z"/>
</g>
<g fill="#FEFFFE" fill-opacity="1.00" stroke="None">
<path d="
M 731.00 179.00 
C 714.52 159.78 681.70 166.41 667.25 184.25 C 652.81 202.10 641.54 221.58 619.00 228.00
C 618.71 224.06 623.67 222.59 624.00 219.00
C 610.73 212.42 594.93 208.28 581.08 203.92 C 567.22 199.57 559.00 186.72 545.00 183.00
C 545.83 190.67 553.01 195.81 555.00 203.00
C 540.51 200.40 528.06 190.79 513.00 190.00
C 516.33 197.99 526.22 201.14 530.00 208.00
C 486.91 206.39 448.04 229.75 417.25 259.25 C 386.46 288.75 377.57 329.13 357.00 364.00
C 359.33 363.88 361.96 364.81 363.00 367.00
C 321.00 385.70 286.37 423.62 284.00 471.00 C 281.63 518.38 307.47 567.98 354.00 583.00
C 343.90 587.74 331.76 580.72 321.00 580.00
C 314.00 594.73 301.35 607.27 288.00 617.00
C 328.37 623.39 372.87 614.61 401.00 583.00
C 394.32 584.00 387.09 584.24 381.00 582.00
C 392.73 582.29 405.34 580.17 411.25 570.25 C 417.16 560.33 422.70 553.04 425.01 542.01 C 427.32 530.98 432.18 523.44 440.08 515.08 C 447.98 506.73 447.29 496.74 441.00 487.00
C 425.54 493.24 403.30 475.65 414.00 460.00
C 415.76 467.65 417.47 476.37 426.93 479.07 C 436.38 481.77 443.95 479.08 452.75 474.75 C 461.55 470.43 459.43 461.40 459.00 452.00
C 447.95 451.87 430.48 427.99 442.31 421.31 C 454.13 414.62 477.54 415.17 487.25 424.75 C 496.95 434.34 474.63 452.21 465.00 452.00
C 462.15 481.34 500.07 492.52 523.00 485.00
C 518.37 491.66 509.98 494.68 502.00 494.00
C 502.75 503.79 505.19 514.33 515.00 519.00
C 512.67 523.46 513.63 540.92 524.00 538.00 C 534.37 535.08 534.33 545.00 541.31 548.69 C 548.28 552.39 559.17 548.71 560.68 559.32 C 562.18 569.93 566.51 571.83 567.00 582.00
C 575.09 583.94 582.71 587.74 591.00 589.00
C 583.80 591.81 575.29 587.40 568.00 586.00
C 571.58 602.13 570.49 619.82 571.00 636.00
C 586.67 630.05 598.30 616.95 612.00 608.00
C 606.58 623.58 592.01 634.40 578.00 642.00
C 586.55 654.58 590.35 670.94 586.00 686.00
C 624.74 694.03 664.42 679.98 691.00 651.00
C 668.39 684.08 623.07 696.69 585.00 688.00
C 582.93 695.25 579.09 703.36 572.00 707.00
C 600.73 723.89 638.00 717.79 668.00 707.00
C 650.98 724.80 625.20 728.18 601.00 727.00
C 591.45 745.16 583.72 764.49 581.00 785.00
C 584.78 781.51 586.29 774.42 592.00 773.00
C 585.87 796.35 589.37 821.95 600.00 843.00
C 617.10 845.91 627.61 829.27 642.99 825.99 C 658.37 822.71 679.92 818.46 694.78 825.22 C 709.64 831.99 719.49 818.95 730.25 808.25 C 741.01 797.54 746.85 786.50 753.70 772.70 C 760.54 758.89 765.20 742.83 767.67 726.67 C 770.14 710.51 770.88 687.30 770.00 670.00 C 769.12 652.71 765.48 634.43 761.98 618.02 C 758.47 601.62 754.10 587.72 749.00 572.00
C 719.23 588.65 685.24 599.52 650.00 595.00
C 677.80 589.71 705.11 580.55 727.92 561.92 C 750.73 543.28 763.37 512.25 759.93 483.07 C 756.48 453.89 743.76 430.02 720.75 411.25 C 697.73 392.49 667.49 385.48 639.00 382.00
C 673.73 380.97 706.75 393.42 731.75 417.25 C 756.75 441.07 766.14 479.07 760.93 511.93 C 755.72 544.79 729.67 567.31 703.00 582.00
C 762.47 565.97 808.66 492.97 775.00 436.00
C 778.47 435.54 780.74 438.82 784.00 439.00
C 767.32 404.19 733.57 380.97 700.00 366.00
C 705.11 364.71 711.52 366.14 717.00 368.00
C 713.99 361.87 710.01 356.89 707.98 350.02 C 705.94 343.16 703.17 336.89 701.32 329.68 C 699.47 322.46 696.52 316.95 694.78 309.22 C 693.04 301.49 686.33 299.58 681.00 296.00
C 706.11 293.36 736.47 279.98 746.02 255.02 C 755.58 230.07 752.39 184.40 720.00 183.00 C 687.61 181.60 687.95 223.81 674.00 242.00
C 680.08 240.67 692.79 233.78 697.22 240.78 C 701.65 247.78 691.24 254.37 689.00 260.00
C 702.34 255.51 709.43 271.11 699.08 277.08 C 688.73 283.05 679.91 288.28 670.00 283.00
C 680.29 279.86 692.78 275.97 699.00 267.00
C 690.70 265.36 682.36 266.33 674.00 267.00
C 678.48 258.65 688.77 253.35 692.00 244.00
C 674.91 243.81 661.46 260.70 645.00 258.00
C 665.03 248.11 673.94 227.22 680.23 207.23 C 686.52 187.23 710.12 168.98 731.00 179.00
M 598.00 291.00 
C 587.58 279.30 569.69 280.33 559.00 291.00
C 563.35 271.71 593.75 271.43 598.00 291.00
M 438.00 298.00 
C 433.51 285.46 416.51 287.39 409.00 296.00
C 411.04 277.27 441.74 279.68 438.00 298.00
M 414.00 388.00 
C 414.86 391.60 418.87 393.97 419.00 398.00
C 404.74 388.29 389.75 379.27 373.00 375.00
C 375.21 370.98 383.74 373.26 388.00 374.00
C 379.66 355.34 402.69 318.22 423.23 330.77 C 443.76 343.32 430.53 379.51 414.00 388.00
M 602.00 379.00 
C 607.10 379.32 612.70 377.84 617.00 381.00
C 595.44 386.34 573.00 391.91 553.00 403.00
C 554.62 398.99 558.97 394.57 563.00 393.00
C 547.10 378.66 540.09 343.44 565.08 331.08 C 590.06 318.72 614.59 356.01 602.00 379.00
M 518.00 403.00 
C 493.18 384.17 454.67 383.88 431.00 405.00
C 452.07 379.52 495.61 380.32 518.00 403.00 Z"/>
</g>
<g fill="#FFFFFF" fill-opacity="1.00" stroke="None">
<path d="
M 420.00 226.00 
C 411.93 209.85 418.15 173.32 393.00 171.00 C 367.85 168.68 360.30 201.68 362.00 221.00 C 363.71 240.32 374.53 262.41 394.00 270.00
C 399.71 262.30 395.43 258.80 391.78 250.22 C 388.13 241.64 397.32 233.78 406.00 240.00
C 400.76 228.88 408.94 217.40 420.00 226.00 Z"/>
</g>
<g fill="#FFFFFF" fill-opacity="1.00" stroke="None">
<path d="
M 424.00 237.00 
C 419.66 234.38 415.84 230.47 411.00 229.00
C 410.29 235.11 412.48 240.50 414.00 246.00
C 417.23 242.90 421.41 240.73 424.00 237.00 Z"/>
</g>
<g fill="#FFFFFF" fill-opacity="1.00" stroke="None">
<path d="
M 412.00 247.00 
C 406.57 246.69 401.19 243.20 396.00 245.00
C 398.20 249.66 398.80 255.63 403.00 259.00
C 404.34 254.02 410.84 251.93 412.00 247.00 Z"/>
</g>
<g fill="#000000" fill-opacity="1.00" stroke="None">
<path d="
M 598.00 291.00 
C 593.75 271.43 563.35 271.71 559.00 291.00
C 569.69 280.33 587.58 279.30 598.00 291.00 Z"/>
</g>
<g fill="#000000" fill-opacity="1.00" stroke="None">
<path d="
M 438.00 298.00 
C 441.74 279.68 411.04 277.27 409.00 296.00
C 416.51 287.39 433.51 285.46 438.00 298.00 Z"/>
</g>
<g fill="#000000" fill-opacity="1.00" stroke="None">
<path d="
M 414.00 388.00 
C 430.53 379.51 443.76 343.32 423.23 330.77 C 402.69 318.22 379.66 355.34 388.00 374.00
C 383.74 373.26 375.21 370.98 373.00 375.00
C 389.75 379.27 404.74 388.29 419.00 398.00
C 418.87 393.97 414.86 391.60 414.00 388.00
M 414.00 340.00 
C 422.35 341.82 417.26 358.03 409.00 355.00 C 400.74 351.97 405.74 338.19 414.00 340.00 Z"/>
</g>
<g fill="#000000" fill-opacity="1.00" stroke="None">
<path d="
M 602.00 379.00 
C 614.59 356.01 590.06 318.72 565.08 331.08 C 540.09 343.44 547.10 378.66 563.00 393.00
C 558.97 394.57 554.62 398.99 553.00 403.00
C 573.00 391.91 595.44 386.34 617.00 381.00
C 612.70 377.84 607.10 379.32 602.00 379.00
M 576.00 342.00 
C 584.77 345.08 578.97 362.40 569.93 358.07 C 560.88 353.74 565.70 338.38 576.00 342.00 Z"/>
</g>
<g fill="#FFFFFF" fill-opacity="1.00" stroke="None">
<path d="
M 414.00 340.00 
C 405.74 338.19 400.74 351.97 409.00 355.00 C 417.26 358.03 422.35 341.82 414.00 340.00 Z"/>
</g>
<g fill="#FFFFFF" fill-opacity="1.00" stroke="None">
<path d="
M 576.00 342.00 
C 565.70 338.38 560.88 353.74 569.93 358.07 C 578.97 362.40 584.77 345.08 576.00 342.00 Z"/>
</g>
<g fill="#FFFFFF" fill-opacity="1.00" stroke="None">
<path d="
M 353.00 370.00 
C 325.18 371.16 300.39 385.85 280.00 404.00
C 281.52 405.99 284.55 402.84 287.00 404.00
C 234.80 449.42 258.21 540.13 319.00 566.00
C 288.05 538.24 276.20 493.11 284.00 454.00 C 291.81 414.90 318.62 387.65 353.00 370.00 Z"/>
</g>
<g fill="#000000" fill-opacity="1.00" stroke="None">
<path d="
M 518.00 403.00 
C 495.61 380.32 452.07 379.52 431.00 405.00
C 454.67 383.88 493.18 384.17 518.00 403.00 Z"/>
</g>
<g fill="#FFFFFF" fill-opacity="1.00" stroke="None">
<path d="
M 472.00 424.00 
C 464.15 422.73 454.66 423.57 447.08 425.08 C 439.50 426.58 445.80 435.36 449.75 439.25 C 453.70 443.14 460.58 448.47 466.92 444.92 C 473.27 441.38 475.73 440.08 481.25 434.25 C 486.76 428.41 477.55 424.90 472.00 424.00 Z"/>
</g>
<g fill="#FFFFFF" fill-opacity="1.00" stroke="None">
<path d="
M 465.00 476.00 
C 458.97 478.38 454.38 483.88 448.00 486.00
C 451.70 494.02 452.12 509.52 465.00 506.00
C 465.70 498.04 462.00 489.36 465.00 482.00
C 467.44 490.06 465.65 499.25 469.00 507.00
C 481.59 511.33 485.86 502.59 488.00 492.00
C 479.28 489.38 469.39 484.45 465.00 476.00 Z"/>
</g>
<g fill="#FFFFFF" fill-opacity="1.00" stroke="None">
<path d="
M 495.00 498.00 
C 491.90 498.00 492.93 502.26 491.00 504.00
C 493.02 506.23 495.11 509.31 498.00 511.00
C 497.28 506.56 495.68 502.40 495.00 498.00 Z"/>
</g>
<g fill="#FFFFFF" fill-opacity="1.00" stroke="None">
<path d="
M 488.00 510.00 
C 478.13 518.40 462.76 511.25 451.00 511.00
C 445.24 522.04 434.95 530.55 431.98 542.98 C 429.00 555.40 419.07 566.48 427.23 577.77 C 435.39 589.06 435.61 606.02 433.78 618.78 C 431.95 631.53 425.21 642.06 416.25 651.25 C 407.29 660.44 396.03 665.40 383.67 668.67 C 371.31 671.94 353.69 669.30 343.25 661.75 C 332.80 654.20 326.79 643.75 323.00 632.00
C 311.61 634.65 296.61 633.43 285.22 632.78 C 273.83 632.13 260.89 626.73 255.00 639.00
C 262.19 640.71 271.25 648.89 267.00 657.00
C 274.79 660.23 273.81 671.93 266.00 674.00
C 269.93 683.52 261.33 690.92 254.00 695.00
C 257.17 701.38 260.94 708.54 265.75 714.25 C 270.55 719.97 275.05 725.18 280.92 730.08 C 286.79 734.99 291.98 738.34 298.77 742.23 C 305.56 746.12 312.15 749.45 319.93 752.07 C 327.70 754.70 336.49 756.71 345.00 758.00 C 353.51 759.29 365.07 759.08 374.00 759.00 C 382.93 758.92 392.72 756.67 400.93 754.93 C 409.13 753.18 416.74 750.18 423.98 746.98 C 431.21 743.77 437.78 741.13 444.30 737.30 C 450.83 733.47 456.99 729.19 462.75 724.75 C 468.52 720.31 474.53 715.62 479.25 710.25 C 483.97 704.87 490.38 700.56 493.75 694.75 C 497.11 688.94 506.71 682.89 503.77 676.23 C 500.83 669.57 503.65 659.85 513.00 659.00
C 508.77 651.29 518.06 644.17 525.00 644.00
C 533.29 620.74 540.05 596.79 539.00 571.00
C 530.95 571.79 523.60 566.54 521.00 559.00
C 509.17 564.35 494.87 553.46 499.00 541.00
C 491.80 539.99 487.49 536.05 486.00 529.00 C 484.51 521.95 491.09 515.47 488.00 510.00 Z"/>
</g>
<g fill="#FFFFFF" fill-opacity="1.00" stroke="None">
<path d="
M 499.00 512.00 
C 497.16 515.73 486.38 527.42 494.25 531.75 C 502.12 536.08 506.64 536.16 505.23 546.77 C 503.82 557.38 521.49 551.65 525.00 551.00
C 525.18 563.88 543.47 569.04 549.00 557.00
C 539.97 558.61 530.95 552.84 529.00 544.00
C 522.65 545.00 510.20 543.10 508.32 534.68 C 506.45 526.26 505.12 518.62 499.00 512.00 Z"/>
</g>
<g fill="#FFFFFF" fill-opacity="1.00" stroke="None">
<path d="
M 553.00 564.00 
C 541.10 572.03 547.09 590.51 543.33 603.33 C 539.57 616.15 538.83 629.83 533.00 642.00
C 538.56 641.12 543.47 641.11 549.00 642.00
C 547.59 634.89 551.44 625.84 560.00 628.00
C 561.26 605.77 558.02 584.62 553.00 564.00 Z"/>
</g>
<g fill="#FFFFFF" fill-opacity="1.00" stroke="None">
<path d="
M 325.00 632.00 
C 334.51 668.34 377.52 675.07 405.30 656.30 C 433.09 637.53 442.36 595.78 419.00 571.00
C 399.06 604.13 361.43 624.78 325.00 632.00
M 409.00 604.00 
C 415.14 605.00 421.50 608.35 424.30 614.70 C 427.11 621.04 419.40 630.41 411.98 626.02 C 404.55 621.64 404.12 621.60 398.23 613.77 C 392.34 605.94 398.77 602.34 409.00 604.00
M 378.00 617.00 
C 383.54 617.53 384.05 632.87 384.00 638.00 C 383.95 643.13 378.82 653.83 371.00 652.00 C 363.18 650.17 363.93 637.01 366.93 632.93 C 369.92 628.85 372.48 616.47 378.00 617.00 Z"/>
</g>
<g fill="#000000" fill-opacity="1.00" stroke="None">
<path d="
M 409.00 604.00 
C 398.77 602.34 392.34 605.94 398.23 613.77 C 404.12 621.60 404.55 621.64 411.98 626.02 C 419.40 630.41 427.11 621.04 424.30 614.70 C 421.50 608.35 415.14 605.00 409.00 604.00
M 402.00 609.00 
C 406.66 607.55 423.26 614.29 418.22 620.22 C 413.19 626.15 403.66 611.75 402.00 609.00 Z"/>
</g>
<g fill="#FFFFFF" fill-opacity="1.00" stroke="None">
<path d="
M 402.00 609.00 
C 403.66 611.75 413.19 626.15 418.22 620.22 C 423.26 614.29 406.66 607.55 402.00 609.00 Z"/>
</g>
<g fill="#000000" fill-opacity="1.00" stroke="None">
<path d="
M 378.00 617.00 
C 372.48 616.47 369.92 628.85 366.93 632.93 C 363.93 637.01 363.18 650.17 371.00 652.00 C 378.82 653.83 383.95 643.13 384.00 638.00 C 384.05 632.87 383.54 617.53 378.00 617.00
M 372.00 646.00 
C 367.86 639.31 374.28 632.53 376.00 626.00
C 379.31 631.49 379.83 643.79 372.00 646.00 Z"/>
</g>
<g fill="#FDFDFD" fill-opacity="1.00" stroke="None">
<path d="
M 352.00 622.00 
C 326.66 629.35 295.54 622.05 269.00 628.00
C 295.89 632.62 326.58 632.93 352.00 622.00 Z"/>
</g>
<g fill="#FFFFFF" fill-opacity="1.00" stroke="None">
<path d="
M 372.00 646.00 
C 379.83 643.79 379.31 631.49 376.00 626.00
C 374.28 632.53 367.86 639.31 372.00 646.00 Z"/>
</g>
<g fill="#FFFFFF" fill-opacity="1.00" stroke="None">
<path d="
M 519.00 688.00 
C 524.46 702.62 543.28 708.21 558.32 705.32 C 573.36 702.43 580.51 682.86 579.00 669.00 C 577.49 655.14 570.27 638.62 556.00 635.00
C 555.15 640.08 556.97 644.46 558.00 649.00
C 546.25 649.00 533.69 645.42 523.03 652.03 C 512.36 658.63 537.58 659.61 543.00 663.00
C 535.35 667.79 525.12 663.02 515.03 666.03 C 504.93 669.03 512.08 677.33 519.31 680.70 C 526.53 684.06 535.37 685.70 542.00 689.00
C 534.62 690.97 526.10 690.27 519.00 688.00 Z"/>
</g>
<g fill="#FFFFFF" fill-opacity="1.00" stroke="None">
<path d="
M 262.00 652.00 
C 256.29 642.60 240.99 639.61 236.77 650.77 C 232.55 661.93 230.96 673.90 236.25 684.75 C 241.53 695.61 259.02 687.22 260.00 678.00
C 252.49 677.71 242.97 679.34 238.00 673.00
C 245.92 674.27 250.94 671.65 258.32 670.32 C 265.70 668.99 266.52 661.68 259.01 659.99 C 251.50 658.30 246.67 659.35 240.00 656.00
C 246.26 652.39 255.22 655.12 262.00 652.00 Z"/>
</g>
<g fill="#FEFEFE" fill-opacity="1.00" stroke="None">
<path d="
M 512.00 684.00 
C 485.50 716.68 458.21 743.09 417.07 757.07 C 375.93 771.06 318.93 769.04 283.00 741.00
C 352.34 807.05 477.10 788.78 530.00 710.00
C 521.88 703.94 509.16 696.70 512.00 684.00 Z"/>
</g>
<g fill="#FFFFFF" fill-opacity="1.00" stroke="None">
<path d="
M 599.00 726.00 
C 588.55 724.86 578.18 723.51 569.03 717.98 C 559.87 712.44 550.51 714.95 540.00 713.00
C 510.77 762.16 453.97 790.45 399.00 793.00
C 406.52 814.07 415.30 836.10 441.00 836.00 C 466.69 835.90 492.06 841.86 518.00 843.00 C 543.94 844.14 572.64 846.47 599.00 844.00
C 586.59 825.90 584.55 801.63 587.00 781.00
C 584.17 786.23 580.64 791.28 579.00 797.00
C 575.97 772.14 587.38 747.59 599.00 726.00 Z"/>
</g>
<g fill="#FFFFFF" fill-opacity="1.00" stroke="None">
<path d="
M 783.00 764.00 
C 787.68 756.48 791.14 743.18 778.00 742.00
C 775.36 756.32 770.36 769.90 764.00 783.00
C 772.23 783.52 777.65 779.95 784.75 776.75 C 791.86 773.56 793.05 763.50 783.00 764.00 Z"/>
</g>
<g fill="#FFFFFF" fill-opacity="1.00" stroke="None">
<path d="
M 789.00 777.00 
C 781.25 782.87 771.73 785.68 762.00 786.00
C 759.14 793.32 753.38 799.16 750.00 806.00
C 766.21 803.48 782.89 792.99 789.00 777.00 Z"/>
</g>
<g fill="#FFFFFF" fill-opacity="1.00" stroke="None">
<path d="
M 397.00 793.00 
C 372.09 794.24 348.70 789.10 326.00 782.00
C 344.80 815.44 384.48 829.01 420.00 834.00
C 409.09 822.25 399.72 808.69 397.00 793.00 Z"/>
</g>
<g fill="#FFFFFF" fill-opacity="1.00" stroke="None">
<path d="
M 413.00 843.00 
C 395.33 838.69 373.86 835.55 358.23 825.77 C 342.60 815.99 322.26 826.50 316.00 843.00
C 323.13 836.96 332.74 826.43 343.00 829.00
C 335.24 835.18 333.04 834.89 326.25 843.25 C 319.45 851.61 332.52 853.85 341.00 851.00
C 342.82 841.57 352.97 835.92 362.00 835.00
C 359.30 838.34 342.74 851.77 353.33 853.67 C 363.91 855.57 374.27 850.29 384.33 849.33 C 394.39 848.37 403.81 845.55 413.00 843.00 Z"/>
</g>
<g fill="#FFFFFF" fill-opacity="1.00" stroke="None">
<path d="
M 696.00 858.00 
C 714.33 857.78 706.55 838.54 694.07 834.93 C 681.60 831.31 664.80 829.18 652.22 833.22 C 639.64 837.26 629.84 839.88 621.00 850.00
C 631.17 857.51 633.31 860.52 646.33 864.67 C 659.35 868.82 664.05 853.99 655.00 844.00
C 669.14 846.51 661.96 863.29 676.00 865.00 C 690.04 866.71 689.79 850.00 683.00 841.00
C 690.74 842.69 693.21 851.72 696.00 858.00 Z"/>
</g>
</svg>